<svg xmlns="http://www.w3.org/2000/svg" version="1.1" xmlns:xlink="http://www.w3.org/1999/xlink" xmlns:svgjs="http://svgjs.dev/svgjs" width="1500" height="1500" viewBox="0 0 1500 1500"><rect width="1500" height="1500" fill="#000000"></rect><g transform="matrix(0.6666666666666666,0,0,0.6666666666666666,249.94393817542482,584.2624335840702)"><svg viewBox="0 0 396 131" data-background-color="#f9f6ed" preserveAspectRatio="xMidYMid meet" height="496" width="1500" xmlns="http://www.w3.org/2000/svg" xmlns:xlink="http://www.w3.org/1999/xlink"><g id="tight-bounds" transform="matrix(1,0,0,1,0.022200482531786747,0.16014475953670626)"><svg viewBox="0 0 395.52 130.67971048092662" height="130.67971048092662" width="395.52"><g><svg viewBox="0 0 599.2918562392175 198.00588154054924" height="130.67971048092662" width="395.52"><g></g><g transform="matrix(1,0,0,1,0,27.36550171797751)"><svg viewBox="0 0 395.52 143.27487810459422" height="143.27487810459422" width="395.52"><g id="textblocktransform"><svg viewBox="0 0 395.52 143.27487810459422" height="143.27487810459422" width="395.52" id="textblock"><g><svg viewBox="0 0 395.52 143.27487810459422" height="143.27487810459422" width="395.52"><g transform="matrix(1,0,0,1,0,0)"><svg width="395.52" viewBox="1.7 -36.055802948608 100.49 36.405802948608" height="143.27487810459422" data-palette-color="url(#8ca17eec-b793-420a-85ce-e399ea7d1b5b)"></svg></g></svg></g></svg></g></svg></g><g transform="matrix(1,0,0,1,476.08819661398684,0)"><svg viewBox="0 0 123.20365962523064 198.00588154054924" height="198.00588154054924" width="123.20365962523064"><g><svg xmlns="http://www.w3.org/2000/svg" xmlns:xlink="http://www.w3.org/1999/xlink" version="1.1" x="0" y="0" viewBox="0 0 56 90" enable-background="new 0 0 56.3 90" xml:space="preserve" id="icon-0" width="123.20365962523064" height="198.00588154054924" class="icon-icon-0" data-fill-palette-color="accent"><polygon points="56.3,0 33.7,33.7 56.3,33.7 0,90 17,50.6 0,50.6 17,0 " fill="#ffffff" data-fill-palette-color="accent"></polygon></svg></g></svg></g></svg></g><defs></defs><mask id="c809f95d-54d2-4876-b702-df51d3485e6e"><g id="SvgjsG1898"><svg viewBox="0 0 395.52 130.67971048092662" height="130.67971048092662" width="395.52"><g><svg viewBox="0 0 599.2918562392175 198.00588154054924" height="130.67971048092662" width="395.52"><g><rect width="12.92067636714651" height="171.92985372551306" x="429.34376012342017" y="13.038013907518092" fill="white" opacity="1" stroke-width="0" stroke="transparent" fill-opacity="1" class="rect-yte-0" rx="1%" id="SvgjsRect1897" data-palette-color="url(#8ca17eec-b793-420a-85ce-e399ea7d1b5b)"></rect></g><g transform="matrix(1,0,0,1,0,27.36550171797751)"><svg viewBox="0 0 395.52 143.27487810459422" height="143.27487810459422" width="395.52"><g id="SvgjsG1896"><svg viewBox="0 0 395.52 143.27487810459422" height="143.27487810459422" width="395.52" id="SvgjsSvg1895"><g><svg viewBox="0 0 395.52 143.27487810459422" height="143.27487810459422" width="395.52"><g transform="matrix(1,0,0,1,0,0)"><svg width="395.52" viewBox="1.7 -36.055802948608 100.49 36.405802948608" height="143.27487810459422" data-palette-color="url(#8ca17eec-b793-420a-85ce-e399ea7d1b5b)"><path d="M5.2-25L5.2-27.95Q5.2-30.7 6.1-32.6 7-34.5 8.97-35.38 10.95-36.25 14.25-36L14.25-36 14.25-32.65Q11.25-32.9 10.1-31.68 8.95-30.45 8.95-27.95L8.95-27.95 8.95-25 14.45-25 14.45-21.5 8.95-21.5 8.95 0 5.2 0 5.2-21.5 1.7-21.5 1.7-25 5.2-25ZM19.55 0L19.55-36 23.3-36 23.3 0 19.55 0ZM50.05 0L46.59 0 46.3-4.5Q45.25-2.2 43.2-0.93 41.14 0.35 37.99 0.35L37.99 0.35Q35.3 0.35 33.39-0.5 31.49-1.35 30.47-2.93 29.45-4.5 29.45-6.65L29.45-6.65Q29.45-9.8 31.79-11.83 34.14-13.85 38.59-14.3L38.59-14.3 46.3-15.15 46.3-17.15Q46.3-19.25 44.75-20.53 43.2-21.8 40.55-21.8L40.55-21.8Q37.95-21.8 36.22-20.6 34.49-19.4 33.84-17.15L33.84-17.15 30.45-18.35Q31.45-21.65 34.12-23.5 36.8-25.35 40.64-25.35L40.64-25.35Q45.09-25.35 47.57-23.08 50.05-20.8 50.05-16.9L50.05-16.9 50.05 0ZM46.3-11.15L46.3-11.95 38.55-11.05Q36.05-10.75 34.74-9.68 33.45-8.6 33.45-6.85L33.45-6.85Q33.45-5.1 34.72-4.05 35.99-3 38.39-3L38.39-3Q41.14-3 42.89-4.1 44.64-5.2 45.47-7.08 46.3-8.95 46.3-11.15L46.3-11.15ZM55.79-6.45L59.39-7.65Q59.69-6.15 60.49-5.18 61.29-4.2 62.57-3.7 63.84-3.2 65.54-3.2L65.54-3.2Q68.19-3.2 69.57-4.23 70.94-5.25 70.94-6.8L70.94-6.8Q70.94-8.1 70.12-8.9 69.29-9.7 67.94-10.23 66.59-10.75 64.94-11.15L64.94-11.15Q63.64-11.45 62.14-11.88 60.64-12.3 59.29-13.05 57.94-13.8 57.09-15 56.24-16.2 56.24-18.15L56.24-18.15Q56.24-20.3 57.42-21.93 58.59-23.55 60.67-24.45 62.74-25.35 65.44-25.35L65.44-25.35Q68.54-25.35 70.97-24 73.39-22.65 74.34-19.8L74.34-19.8 70.84-18.6Q70.49-19.9 69.57-20.6 68.64-21.3 67.52-21.55 66.39-21.8 65.29-21.8L65.29-21.8Q63.04-21.8 61.67-20.93 60.29-20.05 60.29-18.3L60.29-18.3Q60.29-17.35 60.74-16.73 61.19-16.1 61.99-15.7 62.79-15.3 63.89-15.03 64.99-14.75 66.29-14.4L66.29-14.4Q67.74-14.05 69.24-13.53 70.74-13 72.04-12.18 73.34-11.35 74.17-10.08 74.99-8.8 74.99-6.9L74.99-6.9Q74.99-4.7 73.79-3.08 72.59-1.45 70.47-0.55 68.34 0.35 65.54 0.35L65.54 0.35Q61.69 0.35 59.17-1.38 56.64-3.1 55.79-6.45L55.79-6.45ZM81.09 0L81.09-36 84.84-36 84.84-21.6Q86.04-23.4 88.09-24.38 90.14-25.35 92.69-25.35L92.69-25.35Q95.44-25.35 97.59-24.1 99.74-22.85 100.97-20.4 102.19-17.95 102.19-14.3L102.19-14.3 102.19 0 98.19 0 98.19-13.85Q98.19-17.75 96.54-19.83 94.89-21.9 91.74-21.9L91.74-21.9Q88.49-21.9 86.67-19.7 84.84-17.5 84.84-13.3L84.84-13.3 84.84 0 81.09 0Z" opacity="1" transform="matrix(1,0,0,1,0,0)" fill="white" class="wordmark-text-0" id="SvgjsPath1894"></path></svg></g></svg></g></svg></g></svg></g><g transform="matrix(1,0,0,1,476.08819661398684,0)"><svg viewBox="0 0 123.20365962523064 198.00588154054924" height="198.00588154054924" width="123.20365962523064"><g><svg xmlns="http://www.w3.org/2000/svg" xmlns:xlink="http://www.w3.org/1999/xlink" version="1.1" x="0" y="0" viewBox="0 0 56 90" enable-background="new 0 0 56.3 90" xml:space="preserve" id="SvgjsSvg1893" width="123.20365962523064" height="198.00588154054924" class="icon-icon-0" data-fill-palette-color="accent"><polygon points="56.3,0 33.7,33.7 56.3,33.7 0,90 17,50.6 0,50.6 17,0 " fill="black"></polygon></svg></g></svg></g></svg></g><defs><mask></mask></defs></svg><rect width="395.52" height="130.67971048092662" fill="black" stroke="none" visibility="hidden"></rect></g></mask><linearGradient x1="0" x2="1" y1="0.5" y2="0.5" id="8ca17eec-b793-420a-85ce-e399ea7d1b5b"><stop stop-color="#f00b51" offset="0"></stop><stop stop-color="#730062" offset="1"></stop></linearGradient><rect width="395.9555990349364" height="130.67971048092662" fill="#ffffff" mask="url(#c809f95d-54d2-4876-b702-df51d3485e6e)" data-fill-palette-color="primary"></rect></svg><rect width="395.52" height="130.67971048092662" fill="none" stroke="none" visibility="hidden"></rect></g></svg></g></svg>